<svg width="163" height="45" viewBox="0 0 163 45" fill="none" xmlns="http://www.w3.org/2000/svg">
<path d="M2.4046 36.0995C2.61759 38.0163 10.3029 39.3563 11.5084 39.5615C15.1268 40.1774 19.5463 41.0624 23.198 40.0957C28.8903 38.5889 34.3774 33.074 38.0504 28.8763C42.4563 23.8409 46.23 18.216 50.7016 13.2759C53.9384 9.70005 57.782 4.0108 62.6263 2.71899C73.3772 -0.14794 83.1295 5.87748 91.5617 11.78C100.153 17.7942 107.719 25.3949 115.304 32.5947C117.468 34.649 119.927 35.3902 122.399 36.9116C124.876 38.4356 127.002 39.6998 129.836 40.5018C133.585 41.5627 136.928 42.6388 140.863 42.6388C146.054 42.6388 151.632 43.393 156.57 41.4848C158.154 40.8729 159.816 40.2895 161.272 39.5615" stroke="#F1E9E3" stroke-width="3" stroke-linecap="round" stroke-dasharray="10 10"/>
</svg>
