<svg width="149" height="77" viewBox="0 0 149 77" fill="none" xmlns="http://www.w3.org/2000/svg">
<path d="M1.5 30.5C4.29539 25.4417 8.63684 22.1892 12.9444 18.5278C16.7753 15.2715 20.9077 11.914 25.3333 9.5C35.1621 4.13883 46.5034 2 57.6667 2C80.527 2 92.5934 23.3843 96.7222 43.2778C98.4406 51.5572 97.52 60.4633 92.7222 67.5C88.5221 73.6602 77.4792 76.8969 70.4722 74.4444C62.141 71.5285 55.3002 64.816 54.5556 55.6944C54.0709 49.7569 55.1788 43.5432 57.6111 38.1111C58.8737 35.2914 60.0428 31.733 62.1111 29.3889C63.4631 27.8566 64.837 26.3563 66 24.6667C71.1496 17.1851 79.6959 13.7312 87.3889 9.5C92.6995 6.57914 99.7247 5 105.722 5C109.475 5 113.21 4.77493 116.889 5.61111C119.48 6.20001 123.831 7.83123 125.75 9.75C129.258 13.2576 134.165 16.5091 138.278 19.5C141.186 21.6153 147 26.1172 147 30" stroke="#F1E9E3" stroke-width="3" stroke-linecap="round" stroke-dasharray="12 12"/>
</svg>
